<svg width="1363" height="761" viewBox="0 0 1363 761" fill="none" xmlns="http://www.w3.org/2000/svg">
<g id="Component 1">
<g id="Group">
<g id="Group_2">
<path id="Vector" d="M342.681 30.1034C343.576 29.148 343.576 27.5991 342.681 26.6437C341.786 25.6883 340.335 25.6883 339.44 26.6437C338.545 27.5991 338.545 29.148 339.44 30.1034C340.335 31.0587 341.786 31.0587 342.681 30.1034Z" fill="url(#paint0_linear_4587_178291)"/>
<path id="Vector_2" d="M358.834 28.937C359.126 27.6224 358.365 26.3039 357.133 25.9922C355.902 25.6805 354.667 26.4935 354.374 27.8081C354.082 29.1227 354.844 30.4412 356.076 30.7529C357.307 31.0647 358.542 30.2516 358.834 28.937Z" fill="url(#paint1_linear_4587_178291)"/>
<path id="Vector_3" d="M374.411 28.741C374.603 27.4056 373.745 26.1564 372.494 25.9509C371.243 25.7454 370.073 26.6613 369.88 27.9967C369.688 29.332 370.546 30.5812 371.797 30.7867C373.048 30.9922 374.218 30.0763 374.411 28.741Z" fill="url(#paint2_linear_4587_178291)"/>
<path id="Vector_4" d="M389.314 30.1044C390.209 29.149 390.209 27.6 389.314 26.6447C388.419 25.6893 386.968 25.6893 386.073 26.6447C385.178 27.6 385.178 29.149 386.073 30.1044C386.968 31.0597 388.419 31.0597 389.314 30.1044Z" fill="url(#paint3_linear_4587_178291)"/>
<path id="Vector_5" d="M342.681 47.0448C343.576 46.0894 343.576 44.5405 342.681 43.5851C341.786 42.6297 340.335 42.6297 339.44 43.5851C338.545 44.5405 338.545 46.0894 339.44 47.0448C340.335 48.0002 341.786 48.0002 342.681 47.0448Z" fill="url(#paint4_linear_4587_178291)"/>
<path id="Vector_6" d="M358.834 45.8809C359.126 44.5662 358.365 43.2478 357.133 42.936C355.902 42.6243 354.667 43.4373 354.374 44.752C354.082 46.0666 354.844 47.385 356.076 47.6968C357.307 48.0085 358.542 47.1955 358.834 45.8809Z" fill="url(#paint5_linear_4587_178291)"/>
<path id="Vector_7" d="M374.411 45.6824C374.604 44.347 373.746 43.0978 372.495 42.8923C371.244 42.6868 370.073 43.6027 369.881 44.9381C369.688 46.2734 370.546 47.5226 371.797 47.7281C373.048 47.9336 374.218 47.0177 374.411 45.6824Z" fill="url(#paint6_linear_4587_178291)"/>
<path id="Vector_8" d="M389.314 47.0458C390.209 46.0904 390.209 44.5414 389.314 43.5861C388.419 42.6307 386.968 42.6307 386.073 43.5861C385.178 44.5414 385.178 46.0904 386.073 47.0458C386.968 48.0011 388.419 48.0011 389.314 47.0458Z" fill="url(#paint7_linear_4587_178291)"/>
<path id="Vector_9" d="M341.06 64.7033C342.326 64.7033 343.352 63.608 343.352 62.2569C343.352 60.9058 342.326 59.8105 341.06 59.8105C339.794 59.8105 338.768 60.9058 338.768 62.2569C338.768 63.608 339.794 64.7033 341.06 64.7033Z" fill="url(#paint8_linear_4587_178291)"/>
<path id="Vector_10" d="M356.604 64.7033C357.87 64.7033 358.896 63.608 358.896 62.2569C358.896 60.9058 357.87 59.8105 356.604 59.8105C355.339 59.8105 354.312 60.9058 354.312 62.2569C354.312 63.608 355.339 64.7033 356.604 64.7033Z" fill="url(#paint9_linear_4587_178291)"/>
<path id="Vector_11" d="M372.149 64.7033C373.414 64.7033 374.44 63.608 374.44 62.2569C374.44 60.9058 373.414 59.8105 372.149 59.8105C370.883 59.8105 369.857 60.9058 369.857 62.2569C369.857 63.608 370.883 64.7033 372.149 64.7033Z" fill="url(#paint10_linear_4587_178291)"/>
<path id="Vector_12" d="M387.693 64.7033C388.959 64.7033 389.985 63.608 389.985 62.2569C389.985 60.9058 388.959 59.8105 387.693 59.8105C386.427 59.8105 385.401 60.9058 385.401 62.2569C385.401 63.608 386.427 64.7033 387.693 64.7033Z" fill="url(#paint11_linear_4587_178291)"/>
<path id="Vector_13" d="M341.06 81.6476C342.326 81.6476 343.352 80.5523 343.352 79.2013C343.352 77.8502 342.326 76.7549 341.06 76.7549C339.794 76.7549 338.768 77.8502 338.768 79.2013C338.768 80.5523 339.794 81.6476 341.06 81.6476Z" fill="url(#paint12_linear_4587_178291)"/>
<path id="Vector_14" d="M356.604 81.6476C357.87 81.6476 358.896 80.5523 358.896 79.2013C358.896 77.8502 357.87 76.7549 356.604 76.7549C355.339 76.7549 354.312 77.8502 354.312 79.2013C354.312 80.5523 355.339 81.6476 356.604 81.6476Z" fill="url(#paint13_linear_4587_178291)"/>
<path id="Vector_15" d="M372.149 81.6476C373.414 81.6476 374.44 80.5523 374.44 79.2013C374.44 77.8502 373.414 76.7549 372.149 76.7549C370.883 76.7549 369.857 77.8502 369.857 79.2013C369.857 80.5523 370.883 81.6476 372.149 81.6476Z" fill="url(#paint14_linear_4587_178291)"/>
<path id="Vector_16" d="M387.693 81.6476C388.959 81.6476 389.985 80.5523 389.985 79.2013C389.985 77.8502 388.959 76.7549 387.693 76.7549C386.427 76.7549 385.401 77.8502 385.401 79.2013C385.401 80.5523 386.427 81.6476 387.693 81.6476Z" fill="url(#paint15_linear_4587_178291)"/>
</g>
<g id="Group_3">
<path id="Vector_17" d="M1128.74 336.444C1130.01 336.444 1131.03 335.348 1131.03 333.997C1131.03 332.646 1130.01 331.551 1128.74 331.551C1127.48 331.551 1126.45 332.646 1126.45 333.997C1126.45 335.348 1127.48 336.444 1128.74 336.444Z" fill="url(#paint16_linear_4587_178291)"/>
<path id="Vector_18" d="M1144.29 336.444C1145.55 336.444 1146.58 335.348 1146.58 333.997C1146.58 332.646 1145.55 331.551 1144.29 331.551C1143.02 331.551 1141.99 332.646 1141.99 333.997C1141.99 335.348 1143.02 336.444 1144.29 336.444Z" fill="url(#paint17_linear_4587_178291)"/>
<path id="Vector_19" d="M1159.83 336.444C1161.1 336.444 1162.12 335.348 1162.12 333.997C1162.12 332.646 1161.1 331.551 1159.83 331.551C1158.57 331.551 1157.54 332.646 1157.54 333.997C1157.54 335.348 1158.57 336.444 1159.83 336.444Z" fill="url(#paint18_linear_4587_178291)"/>
<path id="Vector_20" d="M1175.38 336.444C1176.64 336.444 1177.67 335.348 1177.67 333.997C1177.67 332.646 1176.64 331.551 1175.38 331.551C1174.11 331.551 1173.08 332.646 1173.08 333.997C1173.08 335.348 1174.11 336.444 1175.38 336.444Z" fill="url(#paint19_linear_4587_178291)"/>
<path id="Vector_21" d="M1128.74 353.385C1130.01 353.385 1131.03 352.29 1131.03 350.939C1131.03 349.587 1130.01 348.492 1128.74 348.492C1127.48 348.492 1126.45 349.587 1126.45 350.939C1126.45 352.29 1127.48 353.385 1128.74 353.385Z" fill="url(#paint20_linear_4587_178291)"/>
<path id="Vector_22" d="M1144.29 353.385C1145.55 353.385 1146.58 352.29 1146.58 350.939C1146.58 349.587 1145.55 348.492 1144.29 348.492C1143.02 348.492 1141.99 349.587 1141.99 350.939C1141.99 352.29 1143.02 353.385 1144.29 353.385Z" fill="url(#paint21_linear_4587_178291)"/>
<path id="Vector_23" d="M1159.83 353.385C1161.1 353.385 1162.12 352.29 1162.12 350.939C1162.12 349.587 1161.1 348.492 1159.83 348.492C1158.57 348.492 1157.54 349.587 1157.54 350.939C1157.54 352.29 1158.57 353.385 1159.83 353.385Z" fill="url(#paint22_linear_4587_178291)"/>
<path id="Vector_24" d="M1175.38 353.385C1176.64 353.385 1177.67 352.29 1177.67 350.939C1177.67 349.587 1176.64 348.492 1175.38 348.492C1174.11 348.492 1173.08 349.587 1173.08 350.939C1173.08 352.29 1174.11 353.385 1175.38 353.385Z" fill="url(#paint23_linear_4587_178291)"/>
<path id="Vector_25" d="M1128.74 370.327C1130.01 370.327 1131.03 369.232 1131.03 367.88C1131.03 366.529 1130.01 365.434 1128.74 365.434C1127.48 365.434 1126.45 366.529 1126.45 367.88C1126.45 369.232 1127.48 370.327 1128.74 370.327Z" fill="url(#paint24_linear_4587_178291)"/>
<path id="Vector_26" d="M1144.29 370.327C1145.55 370.327 1146.58 369.232 1146.58 367.88C1146.58 366.529 1145.55 365.434 1144.29 365.434C1143.02 365.434 1141.99 366.529 1141.99 367.88C1141.99 369.232 1143.02 370.327 1144.29 370.327Z" fill="url(#paint25_linear_4587_178291)"/>
<path id="Vector_27" d="M1159.83 370.327C1161.1 370.327 1162.12 369.232 1162.12 367.88C1162.12 366.529 1161.1 365.434 1159.83 365.434C1158.57 365.434 1157.54 366.529 1157.54 367.88C1157.54 369.232 1158.57 370.327 1159.83 370.327Z" fill="url(#paint26_linear_4587_178291)"/>
<path id="Vector_28" d="M1175.38 370.327C1176.64 370.327 1177.67 369.232 1177.67 367.88C1177.67 366.529 1176.64 365.434 1175.38 365.434C1174.11 365.434 1173.08 366.529 1173.08 367.88C1173.08 369.232 1174.11 370.327 1175.38 370.327Z" fill="url(#paint27_linear_4587_178291)"/>
<path id="Vector_29" d="M1130.36 386.556C1131.26 385.601 1131.26 384.052 1130.36 383.096C1129.47 382.141 1128.02 382.141 1127.12 383.096C1126.23 384.052 1126.23 385.601 1127.12 386.556C1128.02 387.511 1129.47 387.511 1130.36 386.556Z" fill="url(#paint28_linear_4587_178291)"/>
<path id="Vector_30" d="M1145.16 387.085C1146.33 386.568 1146.89 385.137 1146.4 383.888C1145.92 382.64 1144.58 382.047 1143.41 382.564C1142.24 383.081 1141.69 384.512 1142.17 385.761C1142.65 387.009 1143.99 387.602 1145.16 387.085Z" fill="url(#paint29_linear_4587_178291)"/>
<path id="Vector_31" d="M1162.03 385.363C1162.32 384.048 1161.55 382.73 1160.32 382.42C1159.09 382.109 1157.86 382.924 1157.57 384.239C1157.28 385.554 1158.04 386.871 1159.27 387.182C1160.5 387.492 1161.74 386.678 1162.03 385.363Z" fill="url(#paint30_linear_4587_178291)"/>
<path id="Vector_32" d="M1177.57 385.361C1177.86 384.046 1177.1 382.729 1175.87 382.418C1174.63 382.108 1173.4 382.922 1173.11 384.237C1172.82 385.552 1173.58 386.87 1174.81 387.18C1176.05 387.49 1177.28 386.676 1177.57 385.361Z" fill="url(#paint31_linear_4587_178291)"/>
</g>
<path id="Vector_33" d="M754.078 155.854C764.388 155.854 772.746 146.932 772.746 135.927C772.746 124.922 764.388 116 754.078 116C743.769 116 735.411 124.922 735.411 135.927C735.411 146.932 743.769 155.854 754.078 155.854Z" fill="url(#paint32_linear_4587_178291)"/>
<path id="Vector_34" d="M1259.07 435.236C1269.38 435.236 1277.73 426.315 1277.73 415.31C1277.73 404.304 1269.38 395.383 1259.07 395.383C1248.76 395.383 1240.4 404.304 1240.4 415.31C1240.4 426.315 1248.76 435.236 1259.07 435.236Z" fill="url(#paint33_linear_4587_178291)"/>
<path id="Vector_35" d="M148.667 736.275C158.977 736.275 167.335 727.354 167.335 716.349C167.335 705.343 158.977 696.422 148.667 696.422C138.358 696.422 130 705.343 130 716.349C130 727.354 138.358 736.275 148.667 736.275Z" fill="url(#paint34_linear_4587_178291)"/>
<g id="Group_4">
<path id="Vector_36" d="M1278.54 187.378L1297.56 185.624C1295.95 189.179 1294.14 192.638 1292.16 195.993L1287.8 196.395L1278.54 187.378Z" fill="#E7ECFD" stroke="#E7ECFD"/>
<path id="Vector_37" d="M1257.87 167.188L1304.63 162.878C1303.9 166.289 1303 169.653 1301.95 172.967L1267.1 176.177L1257.87 167.188Z" fill="#E7ECFD" stroke="#E7ECFD"/>
<path id="Vector_38" d="M1237.19 146.951L1306.65 140.552C1306.64 143.862 1306.48 147.158 1306.16 150.428L1246.42 155.932L1237.19 146.951Z" fill="#E7ECFD" stroke="#E7ECFD"/>
<path id="Vector_39" d="M1181.53 44.1963L1181.53 44.1962C1202.93 36.8879 1224.76 37.7452 1244.01 45.1071L1163.5 52.5139C1169.14 49.1822 1175.16 46.3701 1181.53 44.1963Z" fill="#E7ECFD" stroke="#E7ECFD"/>
<path id="Vector_40" d="M1216.52 126.674L1304.21 118.597C1304.87 121.823 1305.37 125.053 1305.72 128.286L1225.75 135.652L1216.52 126.674Z" fill="#E7ECFD" stroke="#E7ECFD"/>
<path id="Vector_41" d="M1154.5 65.6254L1263.5 55.5873C1267.34 58.2289 1270.98 61.1805 1274.41 64.4069L1163.73 74.5987L1154.5 65.6254Z" fill="#E7ECFD" stroke="#E7ECFD"/>
<path id="Vector_42" d="M1284.69 75.9326C1286.97 78.8578 1289.08 81.9414 1291.04 85.1706L1184.4 94.9919L1175.17 86.0178L1284.69 75.9326Z" fill="#E7ECFD" stroke="#E7ECFD"/>
<path id="Vector_43" d="M1195.85 106.361L1297.25 97.0212C1298.6 100.082 1299.8 103.252 1300.86 106.515L1205.08 115.337L1195.85 106.361Z" fill="#E7ECFD" stroke="#E7ECFD"/>
</g>
<g id="Group_5">
<path id="Vector_44" d="M880.121 672.696L872.617 692.027C870.082 688.925 867.729 685.677 865.557 682.304L867.283 677.861L880.121 672.696Z" fill="#E7ECFD" stroke="#E7ECFD"/>
<path id="Vector_45" d="M908.344 661.347L889.916 708.823C887.081 706.643 884.374 704.311 881.783 701.861L895.505 666.512L908.344 661.347Z" fill="#E7ECFD" stroke="#E7ECFD"/>
<path id="Vector_46" d="M936.565 649.986L909.198 720.496C906.108 719.06 903.105 717.483 900.201 715.764L923.727 655.151L936.565 649.986Z" fill="#E7ECFD" stroke="#E7ECFD"/>
<path id="Vector_47" d="M1024.61 702.003L1025.04 700.901C1024.76 701.175 1024.47 701.447 1024.19 701.717L1024.61 702.003ZM1056.79 617.72C1056.82 618.115 1056.85 618.51 1056.87 618.906L1057.3 617.797C1057.27 617.409 1057.24 617.022 1057.21 616.635L1056.79 617.72Z" fill="#E7ECFD" stroke="#E7ECFD"/>
<path id="Vector_48" d="M964.784 638.63L930.231 727.647C926.898 726.902 923.636 726 920.446 724.947L951.946 643.795L964.784 638.63Z" fill="#E7ECFD" stroke="#E7ECFD"/>
<path id="Vector_49" d="M1049.45 604.567L1006.5 715.209C1002.19 717.826 997.673 720.117 993.001 722.085L1036.61 609.732L1049.45 604.567Z" fill="#E7ECFD" stroke="#E7ECFD"/>
<path id="Vector_50" d="M978.081 727.088C974.251 728.051 970.347 728.795 966.386 729.314L1008.39 621.085L1021.23 615.92L978.081 727.088Z" fill="#E7ECFD" stroke="#E7ECFD"/>
<path id="Vector_51" d="M993.01 627.277L953.06 730.202C949.548 730.203 946.007 730.009 942.443 729.641L980.172 632.442L993.01 627.277Z" fill="#E7ECFD" stroke="#E7ECFD"/>
</g>
<g id="Group_6">
<path id="Vector_52" d="M1237.17 627.009C1238.26 627.283 1238.98 628.468 1238.7 629.701C1238.43 630.934 1237.29 631.651 1236.2 631.376C1235.11 631.102 1234.4 629.917 1234.67 628.684C1234.94 627.451 1236.08 626.735 1237.17 627.009Z" fill="#E7ECFD" stroke="#E7ECFD"/>
<path id="Vector_53" d="M1256.09 628.38C1256.54 629.544 1256.01 630.839 1254.97 631.299C1253.93 631.759 1252.7 631.241 1252.25 630.077C1251.8 628.913 1252.33 627.618 1253.37 627.158C1254.41 626.698 1255.64 627.216 1256.09 628.38Z" fill="#E7ECFD" stroke="#E7ECFD"/>
<path id="Vector_54" d="M1273.1 627.653C1273.91 628.524 1273.91 629.935 1273.1 630.806C1272.28 631.676 1270.96 631.676 1270.14 630.806C1269.33 629.935 1269.33 628.523 1270.14 627.653C1270.96 626.782 1272.28 626.782 1273.1 627.653Z" fill="#E7ECFD" stroke="#E7ECFD"/>
<path id="Vector_55" d="M1289.51 627.008C1290.6 627.282 1291.32 628.467 1291.04 629.7C1290.77 630.934 1289.63 631.65 1288.54 631.376C1287.46 631.101 1286.74 629.917 1287.01 628.683C1287.28 627.45 1288.42 626.734 1289.51 627.008Z" fill="#E7ECFD" stroke="#E7ECFD"/>
<path id="Vector_56" d="M1307.99 627.653C1308.81 628.523 1308.81 629.935 1307.99 630.806C1307.17 631.676 1305.85 631.676 1305.04 630.806C1304.22 629.935 1304.22 628.523 1305.04 627.653C1305.85 626.782 1307.17 626.782 1307.99 627.653Z" fill="#E7ECFD" stroke="#E7ECFD"/>
<path id="Vector_57" d="M1324.4 627.008C1325.49 627.283 1326.21 628.467 1325.94 629.701C1325.67 630.934 1324.53 631.65 1323.44 631.376C1322.35 631.102 1321.63 629.917 1321.9 628.684C1322.17 627.45 1323.31 626.734 1324.4 627.008Z" fill="#E7ECFD" stroke="#E7ECFD"/>
<path id="Vector_58" d="M1342.88 627.653C1343.7 628.524 1343.7 629.935 1342.88 630.806C1342.07 631.677 1340.75 631.677 1339.93 630.806C1339.12 629.935 1339.12 628.524 1339.93 627.653C1340.75 626.783 1342.07 626.783 1342.88 627.653Z" fill="#E7ECFD" stroke="#E7ECFD"/>
<path id="Vector_59" d="M1359.3 627.009C1360.39 627.283 1361.11 628.467 1360.83 629.701C1360.56 630.934 1359.42 631.65 1358.33 631.376C1357.24 631.102 1356.52 629.917 1356.8 628.684C1357.07 627.45 1358.21 626.734 1359.3 627.009Z" fill="#E7ECFD" stroke="#E7ECFD"/>
<path id="Vector_60" d="M1237.17 646.026C1238.26 646.3 1238.98 647.485 1238.7 648.718C1238.43 649.951 1237.29 650.668 1236.2 650.393C1235.12 650.119 1234.4 648.935 1234.67 647.701C1234.94 646.468 1236.08 645.752 1237.17 646.026Z" fill="#E7ECFD" stroke="#E7ECFD"/>
<path id="Vector_61" d="M1256.09 647.398C1256.54 648.562 1256.01 649.857 1254.97 650.317C1253.93 650.777 1252.7 650.259 1252.25 649.095C1251.8 647.931 1252.33 646.636 1253.37 646.176C1254.41 645.716 1255.64 646.234 1256.09 647.398Z" fill="#E7ECFD" stroke="#E7ECFD"/>
<path id="Vector_62" d="M1273.1 646.67C1273.91 647.541 1273.91 648.952 1273.1 649.823C1272.28 650.693 1270.96 650.693 1270.14 649.823C1269.33 648.952 1269.33 647.541 1270.14 646.67C1270.96 645.799 1272.28 645.799 1273.1 646.67Z" fill="#E7ECFD" stroke="#E7ECFD"/>
<path id="Vector_63" d="M1289.51 646.023C1290.6 646.297 1291.32 647.482 1291.04 648.715C1290.77 649.948 1289.63 650.664 1288.54 650.39C1287.46 650.116 1286.74 648.931 1287.01 647.698C1287.28 646.465 1288.42 645.748 1289.51 646.023Z" fill="#E7ECFD" stroke="#E7ECFD"/>
<path id="Vector_64" d="M1307.99 646.67C1308.81 647.541 1308.81 648.952 1307.99 649.823C1307.17 650.694 1305.85 650.694 1305.04 649.823C1304.22 648.952 1304.22 647.541 1305.04 646.67C1305.85 645.8 1307.17 645.8 1307.99 646.67Z" fill="#E7ECFD" stroke="#E7ECFD"/>
<path id="Vector_65" d="M1324.4 646.023C1325.49 646.297 1326.21 647.482 1325.94 648.715C1325.67 649.948 1324.53 650.664 1323.44 650.39C1322.35 650.116 1321.63 648.931 1321.9 647.698C1322.17 646.465 1323.31 645.749 1324.4 646.023Z" fill="#E7ECFD" stroke="#E7ECFD"/>
<path id="Vector_66" d="M1342.89 646.67C1343.7 647.541 1343.7 648.953 1342.89 649.823C1342.07 650.694 1340.75 650.694 1339.93 649.823C1339.12 648.953 1339.12 647.541 1339.93 646.67C1340.75 645.8 1342.07 645.8 1342.89 646.67Z" fill="#E7ECFD" stroke="#E7ECFD"/>
<path id="Vector_67" d="M1359.3 646.023C1360.39 646.297 1361.11 647.482 1360.83 648.715C1360.56 649.948 1359.42 650.665 1358.33 650.39C1357.24 650.116 1356.52 648.931 1356.8 647.698C1357.07 646.465 1358.21 645.749 1359.3 646.023Z" fill="#E7ECFD" stroke="#E7ECFD"/>
<path id="Vector_68" d="M1238.2 665.689C1239.01 666.559 1239.01 667.971 1238.2 668.842C1237.38 669.712 1236.06 669.712 1235.25 668.841C1234.43 667.971 1234.43 666.559 1235.25 665.689C1236.06 664.818 1237.38 664.818 1238.2 665.689Z" fill="#E7ECFD" stroke="#E7ECFD"/>
<path id="Vector_69" d="M1254.55 665.087C1255.65 665.278 1256.45 666.404 1256.26 667.657C1256.07 668.91 1254.98 669.709 1253.87 669.518C1252.77 669.327 1251.98 668.201 1252.17 666.948C1252.36 665.695 1253.45 664.896 1254.55 665.087Z" fill="#E7ECFD" stroke="#E7ECFD"/>
<path id="Vector_70" d="M1272.06 665.038C1273.15 665.313 1273.87 666.497 1273.6 667.731C1273.32 668.964 1272.18 669.68 1271.1 669.406C1270.01 669.132 1269.29 667.947 1269.56 666.714C1269.83 665.48 1270.97 664.764 1272.06 665.038Z" fill="#E7ECFD" stroke="#E7ECFD"/>
<path id="Vector_71" d="M1290.54 665.688C1291.36 666.559 1291.36 667.971 1290.54 668.841C1289.73 669.712 1288.41 669.712 1287.59 668.841C1286.77 667.971 1286.77 666.559 1287.59 665.688C1288.41 664.818 1289.73 664.818 1290.54 665.688Z" fill="#E7ECFD" stroke="#E7ECFD"/>
<path id="Vector_72" d="M1306.96 665.039C1308.04 665.313 1308.76 666.498 1308.49 667.731C1308.22 668.964 1307.08 669.68 1305.99 669.406C1304.9 669.132 1304.18 667.947 1304.45 666.714C1304.73 665.481 1305.87 664.764 1306.96 665.039Z" fill="#E7ECFD" stroke="#E7ECFD"/>
<path id="Vector_73" d="M1325.44 665.689C1326.25 666.559 1326.25 667.971 1325.44 668.841C1324.62 669.712 1323.3 669.712 1322.48 668.841C1321.67 667.971 1321.67 666.559 1322.48 665.689C1323.3 664.818 1324.62 664.818 1325.44 665.689Z" fill="#E7ECFD" stroke="#E7ECFD"/>
<path id="Vector_74" d="M1341.85 665.039C1342.94 665.313 1343.66 666.498 1343.39 667.731C1343.11 668.964 1341.97 669.681 1340.88 669.406C1339.8 669.132 1339.08 667.947 1339.35 666.714C1339.62 665.481 1340.76 664.765 1341.85 665.039Z" fill="#E7ECFD" stroke="#E7ECFD"/>
<path id="Vector_75" d="M1360.33 665.689C1361.15 666.559 1361.15 667.971 1360.33 668.841C1359.52 669.712 1358.19 669.712 1357.38 668.841C1356.56 667.971 1356.56 666.559 1357.38 665.689C1358.19 664.818 1359.52 664.818 1360.33 665.689Z" fill="#E7ECFD" stroke="#E7ECFD"/>
<path id="Vector_76" d="M1238.2 684.706C1239.02 685.577 1239.02 686.988 1238.2 687.859C1237.39 688.729 1236.06 688.729 1235.25 687.859C1234.43 686.988 1234.43 685.576 1235.25 684.706C1236.06 683.835 1237.39 683.835 1238.2 684.706Z" fill="#E7ECFD" stroke="#E7ECFD"/>
<path id="Vector_77" d="M1254.55 684.105C1255.65 684.296 1256.45 685.422 1256.26 686.675C1256.07 687.928 1254.98 688.727 1253.87 688.536C1252.77 688.345 1251.97 687.219 1252.17 685.966C1252.36 684.713 1253.45 683.914 1254.55 684.105Z" fill="#E7ECFD" stroke="#E7ECFD"/>
<path id="Vector_78" d="M1272.06 684.056C1273.15 684.33 1273.87 685.514 1273.6 686.748C1273.33 687.981 1272.19 688.697 1271.1 688.423C1270.01 688.149 1269.29 686.964 1269.56 685.731C1269.83 684.497 1270.97 683.781 1272.06 684.056Z" fill="#E7ECFD" stroke="#E7ECFD"/>
<path id="Vector_79" d="M1290.54 684.706C1291.36 685.576 1291.36 686.988 1290.54 687.858C1289.73 688.729 1288.41 688.729 1287.59 687.858C1286.77 686.988 1286.77 685.576 1287.59 684.706C1288.41 683.835 1289.73 683.835 1290.54 684.706Z" fill="#E7ECFD" stroke="#E7ECFD"/>
<path id="Vector_80" d="M1306.96 684.056C1308.04 684.33 1308.76 685.515 1308.49 686.748C1308.22 687.981 1307.08 688.697 1305.99 688.423C1304.9 688.149 1304.18 686.964 1304.46 685.731C1304.73 684.498 1305.87 683.781 1306.96 684.056Z" fill="#E7ECFD" stroke="#E7ECFD"/>
<path id="Vector_81" d="M1325.44 684.706C1326.25 685.577 1326.25 686.988 1325.44 687.859C1324.62 688.729 1323.3 688.729 1322.48 687.859C1321.67 686.988 1321.67 685.576 1322.48 684.706C1323.3 683.835 1324.62 683.835 1325.44 684.706Z" fill="#E7ECFD" stroke="#E7ECFD"/>
<path id="Vector_82" d="M1341.85 684.056C1342.94 684.33 1343.66 685.515 1343.39 686.748C1343.11 687.981 1341.97 688.697 1340.88 688.423C1339.8 688.149 1339.08 686.964 1339.35 685.731C1339.62 684.498 1340.76 683.782 1341.85 684.056Z" fill="#E7ECFD" stroke="#E7ECFD"/>
<path id="Vector_83" d="M1360.33 684.706C1361.15 685.577 1361.15 686.988 1360.33 687.859C1359.52 688.729 1358.2 688.729 1357.38 687.859C1356.57 686.988 1356.57 685.577 1357.38 684.706C1358.2 683.835 1359.52 683.835 1360.33 684.706Z" fill="#E7ECFD" stroke="#E7ECFD"/>
</g>
<g id="Group_7">
<path id="Vector_84" d="M337.123 538.457C338.211 538.731 338.931 539.916 338.658 541.149C338.386 542.383 337.246 543.099 336.157 542.825C335.069 542.55 334.349 541.366 334.622 540.132C334.895 538.899 336.035 538.183 337.123 538.457Z" fill="#E7ECFD" stroke="#E7ECFD"/>
<path id="Vector_85" d="M355.563 539.085C356.378 539.955 356.378 541.367 355.563 542.238C354.747 543.108 353.425 543.108 352.609 542.238C351.794 541.367 351.794 539.955 352.609 539.085C353.425 538.214 354.747 538.214 355.563 539.085Z" fill="#E7ECFD" stroke="#E7ECFD"/>
<path id="Vector_86" d="M372.016 538.502C373.104 538.778 373.823 539.964 373.548 541.196C373.274 542.429 372.134 543.144 371.045 542.868C369.957 542.593 369.239 541.407 369.513 540.174C369.787 538.941 370.928 538.227 372.016 538.502Z" fill="#E7ECFD" stroke="#E7ECFD"/>
<path id="Vector_87" d="M390.457 539.085C391.273 539.956 391.273 541.367 390.457 542.238C389.642 543.109 388.319 543.109 387.504 542.238C386.688 541.367 386.688 539.956 387.504 539.085C388.319 538.215 389.642 538.215 390.457 539.085Z" fill="#E7ECFD" stroke="#E7ECFD"/>
<path id="Vector_88" d="M406.765 538.451C407.867 538.642 408.664 539.769 408.473 541.022C408.282 542.275 407.191 543.073 406.089 542.882C404.988 542.69 404.19 541.563 404.382 540.311C404.573 539.058 405.664 538.259 406.765 538.451Z" fill="#E7ECFD" stroke="#E7ECFD"/>
<path id="Vector_89" d="M424.36 538.505C425.448 538.781 426.167 539.967 425.893 541.199C425.619 542.432 424.478 543.147 423.39 542.871C422.302 542.596 421.583 541.41 421.857 540.177C422.131 538.944 423.272 538.23 424.36 538.505Z" fill="#E7ECFD" stroke="#E7ECFD"/>
<path id="Vector_90" d="M442.721 538.955C443.583 539.765 443.67 541.174 442.904 542.102C442.139 543.029 440.819 543.114 439.957 542.304C439.095 541.493 439.008 540.085 439.773 539.157C440.539 538.229 441.859 538.145 442.721 538.955Z" fill="#E7ECFD" stroke="#E7ECFD"/>
<path id="Vector_91" d="M459.198 538.458C460.291 538.702 461.041 539.865 460.799 541.107C460.557 542.348 459.435 543.096 458.341 542.852C457.247 542.609 456.497 541.446 456.739 540.204C456.981 538.963 458.104 538.215 459.198 538.458Z" fill="#E7ECFD" stroke="#E7ECFD"/>
<path id="Vector_92" d="M338.114 558.103C338.929 558.974 338.929 560.385 338.114 561.256C337.298 562.127 335.976 562.127 335.16 561.256C334.345 560.385 334.345 558.974 335.16 558.103C335.976 557.233 337.298 557.233 338.114 558.103Z" fill="#E7ECFD" stroke="#E7ECFD"/>
<path id="Vector_93" d="M354.565 557.509C355.654 557.782 356.375 558.966 356.103 560.199C355.832 561.433 354.692 562.15 353.604 561.877C352.515 561.604 351.794 560.42 352.066 559.187C352.337 557.953 353.477 557.236 354.565 557.509Z" fill="#E7ECFD" stroke="#E7ECFD"/>
<path id="Vector_94" d="M373.011 558.103C373.826 558.974 373.826 560.385 373.011 561.256C372.195 562.127 370.873 562.127 370.057 561.256C369.242 560.385 369.242 558.974 370.057 558.103C370.873 557.233 372.195 557.233 373.011 558.103Z" fill="#E7ECFD" stroke="#E7ECFD"/>
<path id="Vector_95" d="M389.46 557.51C390.549 557.783 391.27 558.967 390.998 560.2C390.727 561.434 389.587 562.151 388.499 561.878C387.41 561.605 386.689 560.421 386.961 559.188C387.232 557.954 388.372 557.237 389.46 557.51Z" fill="#E7ECFD" stroke="#E7ECFD"/>
<path id="Vector_96" d="M408.334 558.834C408.789 559.996 408.265 561.292 407.226 561.755C406.187 562.219 404.955 561.704 404.501 560.542C404.046 559.379 404.57 558.083 405.609 557.62C406.648 557.157 407.879 557.671 408.334 558.834Z" fill="#E7ECFD" stroke="#E7ECFD"/>
<path id="Vector_97" d="M425.352 558.105C426.167 558.975 426.167 560.387 425.352 561.258C424.536 562.128 423.214 562.128 422.398 561.258C421.583 560.387 421.583 558.975 422.398 558.105C423.214 557.234 424.536 557.234 425.352 558.105Z" fill="#E7ECFD" stroke="#E7ECFD"/>
<path id="Vector_98" d="M441.834 557.521C442.919 557.811 443.623 559.006 443.335 560.235C443.047 561.463 441.898 562.163 440.813 561.874C439.728 561.584 439.023 560.388 439.312 559.16C439.6 557.931 440.748 557.231 441.834 557.521Z" fill="#E7ECFD" stroke="#E7ECFD"/>
<path id="Vector_99" d="M460.456 558.329C461.152 559.325 460.953 560.72 460.037 561.449C459.121 562.179 457.812 561.985 457.115 560.989C456.419 559.993 456.619 558.597 457.534 557.868C458.45 557.139 459.76 557.332 460.456 558.329Z" fill="#E7ECFD" stroke="#E7ECFD"/>
<path id="Vector_100" d="M338.116 577.12C338.931 577.991 338.931 579.403 338.116 580.273C337.3 581.144 335.978 581.144 335.162 580.273C334.347 579.403 334.347 577.991 335.162 577.12C335.978 576.25 337.3 576.25 338.116 577.12Z" fill="#E7ECFD" stroke="#E7ECFD"/>
<path id="Vector_101" d="M354.565 576.526C355.654 576.799 356.375 577.983 356.103 579.217C355.832 580.45 354.692 581.168 353.604 580.895C352.515 580.622 351.794 579.438 352.066 578.204C352.337 576.971 353.477 576.253 354.565 576.526Z" fill="#E7ECFD" stroke="#E7ECFD"/>
<path id="Vector_102" d="M373.01 577.121C373.826 577.991 373.826 579.403 373.01 580.274C372.195 581.144 370.872 581.144 370.057 580.274C369.241 579.403 369.241 577.992 370.057 577.121C370.872 576.25 372.195 576.25 373.01 577.121Z" fill="#E7ECFD" stroke="#E7ECFD"/>
<path id="Vector_103" d="M389.46 576.527C390.549 576.8 391.27 577.984 390.998 579.218C390.727 580.451 389.587 581.169 388.499 580.896C387.41 580.623 386.689 579.439 386.961 578.205C387.232 576.972 388.372 576.254 389.46 576.527Z" fill="#E7ECFD" stroke="#E7ECFD"/>
<path id="Vector_104" d="M408.332 577.851C408.787 579.013 408.263 580.31 407.224 580.773C406.185 581.236 404.953 580.722 404.499 579.559C404.044 578.397 404.568 577.101 405.607 576.637C406.646 576.174 407.877 576.689 408.332 577.851Z" fill="#E7ECFD" stroke="#E7ECFD"/>
<path id="Vector_105" d="M425.354 577.122C426.169 577.993 426.169 579.404 425.354 580.275C424.538 581.146 423.216 581.146 422.4 580.275C421.585 579.404 421.585 577.993 422.4 577.122C423.216 576.252 424.538 576.252 425.354 577.122Z" fill="#E7ECFD" stroke="#E7ECFD"/>
<path id="Vector_106" d="M441.836 576.539C442.921 576.829 443.625 578.024 443.337 579.253C443.049 580.481 441.9 581.182 440.815 580.892C439.73 580.602 439.025 579.407 439.313 578.178C439.602 576.949 440.75 576.249 441.836 576.539Z" fill="#E7ECFD" stroke="#E7ECFD"/>
<path id="Vector_107" d="M460.457 577.346C461.153 578.342 460.954 579.737 460.038 580.467C459.122 581.196 457.812 581.002 457.116 580.006C456.42 579.01 456.62 577.614 457.535 576.885C458.451 576.156 459.761 576.35 460.457 577.346Z" fill="#E7ECFD" stroke="#E7ECFD"/>
<path id="Vector_108" d="M337.125 595.505C338.213 595.78 338.933 596.964 338.66 598.198C338.387 599.431 337.247 600.147 336.159 599.873C335.07 599.599 334.351 598.414 334.623 597.181C334.896 595.947 336.036 595.231 337.125 595.505Z" fill="#E7ECFD" stroke="#E7ECFD"/>
<path id="Vector_109" d="M355.563 596.137C356.378 597.008 356.378 598.419 355.563 599.29C354.747 600.16 353.425 600.16 352.609 599.29C351.794 598.419 351.794 597.008 352.609 596.137C353.425 595.266 354.747 595.266 355.563 596.137Z" fill="#E7ECFD" stroke="#E7ECFD"/>
<path id="Vector_110" d="M372.014 595.557C373.102 595.833 373.821 597.018 373.546 598.251C373.272 599.484 372.132 600.199 371.043 599.923C369.955 599.648 369.237 598.462 369.511 597.229C369.785 595.996 370.926 595.281 372.014 595.557Z" fill="#E7ECFD" stroke="#E7ECFD"/>
<path id="Vector_111" d="M390.457 596.137C391.273 597.008 391.273 598.42 390.457 599.29C389.642 600.161 388.319 600.161 387.504 599.29C386.688 598.42 386.688 597.008 387.504 596.137C388.319 595.267 389.642 595.267 390.457 596.137Z" fill="#E7ECFD" stroke="#E7ECFD"/>
<path id="Vector_112" d="M406.765 595.501C407.866 595.692 408.664 596.819 408.473 598.072C408.282 599.324 407.19 600.123 406.089 599.931C404.987 599.74 404.19 598.613 404.381 597.36C404.572 596.108 405.663 595.309 406.765 595.501Z" fill="#E7ECFD" stroke="#E7ECFD"/>
<path id="Vector_113" d="M424.358 595.557C425.446 595.833 426.165 597.018 425.891 598.251C425.617 599.484 424.476 600.199 423.388 599.923C422.3 599.648 421.581 598.462 421.855 597.229C422.129 595.996 423.27 595.281 424.358 595.557Z" fill="#E7ECFD" stroke="#E7ECFD"/>
<path id="Vector_114" d="M442.721 596.004C443.583 596.814 443.671 598.223 442.905 599.15C442.139 600.078 440.819 600.163 439.957 599.353C439.096 598.542 439.008 597.134 439.774 596.206C440.539 595.278 441.859 595.193 442.721 596.004Z" fill="#E7ECFD" stroke="#E7ECFD"/>
<path id="Vector_115" d="M459.199 595.509C460.292 595.752 461.042 596.916 460.8 598.157C460.558 599.399 459.435 600.146 458.342 599.903C457.248 599.66 456.498 598.497 456.74 597.255C456.982 596.014 458.105 595.266 459.199 595.509Z" fill="#E7ECFD" stroke="#E7ECFD"/>
</g>
<g id="Group_8">
<path id="Vector_116" d="M655.61 334.477L736.878 349.564L732.419 369.28L651.151 354.194L655.61 334.477Z" fill="#2753F1" stroke="#2753F1"/>
<path id="Vector_117" d="M693.438 307.548L713.788 311.327L694.593 396.207L674.243 392.429L693.438 307.548Z" fill="#2753F1" stroke="#2753F1"/>
</g>
<g id="Group_9">
<path id="Vector_118" d="M535.884 58.6904L569.92 66.0227L568.339 74.3851L534.303 67.0528L535.884 58.6904Z" fill="#E7ECFD" stroke="#E7ECFD"/>
<path id="Vector_119" d="M551.661 47.5036L559.438 49.179L552.557 85.5716L544.781 83.8962L551.661 47.5036Z" fill="#E7ECFD" stroke="#E7ECFD"/>
</g>
<g id="Group_10">
<path id="Vector_120" d="M1025.31 85.1025L1080.59 97.011L1077.93 111.041L1022.66 99.133L1025.31 85.1025Z" fill="#E7ECFD" stroke="#E7ECFD"/>
<path id="Vector_121" d="M1050.66 67.1273L1063.75 69.9465L1052.58 129.014L1039.49 126.195L1050.66 67.1273Z" fill="#E7ECFD" stroke="#E7ECFD"/>
</g>
<g id="Group_11">
<path id="Vector_122" d="M1079.93 570.497L1072.9 564.023L1099.07 531.652L1106.1 538.126L1079.93 570.497Z" fill="#E7ECFD" stroke="#E7ECFD"/>
<path id="Vector_123" d="M1101.62 568.788L1071.3 540.862L1077.37 533.352L1107.69 561.277L1101.62 568.788Z" fill="#E7ECFD" stroke="#E7ECFD"/>
</g>
<path id="Vector_124" d="M720.604 490.479H824.445V540.353H720.604V490.479Z" fill="#E7ECFD" stroke="#E7ECFD"/>
<path id="Vector_125" d="M154.305 0.0668945L39.1113 59.961L61.1098 93.9334L154.305 0.0668945Z" fill="#E7ECFD"/>
<path id="Vector_126" d="M1025.57 305.146L1052.39 341.627L959.659 389.844L1025.57 305.146Z" fill="#E7ECFD" stroke="#E7ECFD"/>
<path id="Vector_127" d="M966.913 228.143L1014.73 203.279L1000.9 184.467L966.913 228.143Z" fill="url(#paint35_linear_4587_178291)"/>
</g>
</g>
<defs>
<linearGradient id="paint0_linear_4587_178291" x1="338.772" y1="28.3725" x2="343.353" y2="28.3725" gradientUnits="userSpaceOnUse">
<stop stop-color="#B7C6FA"/>
<stop offset="1" stop-color="#0828B1"/>
</linearGradient>
<linearGradient id="paint1_linear_4587_178291" x1="354.655" y1="29.6543" x2="358.691" y2="27.3232" gradientUnits="userSpaceOnUse">
<stop stop-color="#B7C6FA"/>
<stop offset="1" stop-color="#0828B1"/>
</linearGradient>
<linearGradient id="paint2_linear_4587_178291" x1="370.299" y1="29.813" x2="374.158" y2="27.1618" gradientUnits="userSpaceOnUse">
<stop stop-color="#B7C6FA"/>
<stop offset="1" stop-color="#0828B1"/>
</linearGradient>
<linearGradient id="paint3_linear_4587_178291" x1="385.404" y1="28.3735" x2="389.986" y2="28.3735" gradientUnits="userSpaceOnUse">
<stop stop-color="#B7C6FA"/>
<stop offset="1" stop-color="#0828B1"/>
</linearGradient>
<linearGradient id="paint4_linear_4587_178291" x1="338.771" y1="45.3139" x2="343.352" y2="45.3139" gradientUnits="userSpaceOnUse">
<stop stop-color="#B7C6FA"/>
<stop offset="1" stop-color="#0828B1"/>
</linearGradient>
<linearGradient id="paint5_linear_4587_178291" x1="354.655" y1="46.5982" x2="358.691" y2="44.267" gradientUnits="userSpaceOnUse">
<stop stop-color="#B7C6FA"/>
<stop offset="1" stop-color="#0828B1"/>
</linearGradient>
<linearGradient id="paint6_linear_4587_178291" x1="370.299" y1="46.7544" x2="374.159" y2="44.1032" gradientUnits="userSpaceOnUse">
<stop stop-color="#B7C6FA"/>
<stop offset="1" stop-color="#0828B1"/>
</linearGradient>
<linearGradient id="paint7_linear_4587_178291" x1="385.404" y1="45.3149" x2="389.985" y2="45.3149" gradientUnits="userSpaceOnUse">
<stop stop-color="#B7C6FA"/>
<stop offset="1" stop-color="#0828B1"/>
</linearGradient>
<linearGradient id="paint8_linear_4587_178291" x1="339.442" y1="60.5282" x2="342.892" y2="63.7606" gradientUnits="userSpaceOnUse">
<stop stop-color="#B7C6FA"/>
<stop offset="1" stop-color="#0828B1"/>
</linearGradient>
<linearGradient id="paint9_linear_4587_178291" x1="354.986" y1="60.5282" x2="358.437" y2="63.7606" gradientUnits="userSpaceOnUse">
<stop stop-color="#B7C6FA"/>
<stop offset="1" stop-color="#0828B1"/>
</linearGradient>
<linearGradient id="paint10_linear_4587_178291" x1="370.531" y1="60.5282" x2="373.981" y2="63.7606" gradientUnits="userSpaceOnUse">
<stop stop-color="#B7C6FA"/>
<stop offset="1" stop-color="#0828B1"/>
</linearGradient>
<linearGradient id="paint11_linear_4587_178291" x1="386.075" y1="60.5282" x2="389.526" y2="63.7606" gradientUnits="userSpaceOnUse">
<stop stop-color="#B7C6FA"/>
<stop offset="1" stop-color="#0828B1"/>
</linearGradient>
<linearGradient id="paint12_linear_4587_178291" x1="339.442" y1="77.4725" x2="342.892" y2="80.705" gradientUnits="userSpaceOnUse">
<stop stop-color="#B7C6FA"/>
<stop offset="1" stop-color="#0828B1"/>
</linearGradient>
<linearGradient id="paint13_linear_4587_178291" x1="354.986" y1="77.4725" x2="358.437" y2="80.705" gradientUnits="userSpaceOnUse">
<stop stop-color="#B7C6FA"/>
<stop offset="1" stop-color="#0828B1"/>
</linearGradient>
<linearGradient id="paint14_linear_4587_178291" x1="370.531" y1="77.4725" x2="373.981" y2="80.705" gradientUnits="userSpaceOnUse">
<stop stop-color="#B7C6FA"/>
<stop offset="1" stop-color="#0828B1"/>
</linearGradient>
<linearGradient id="paint15_linear_4587_178291" x1="386.075" y1="77.4725" x2="389.526" y2="80.705" gradientUnits="userSpaceOnUse">
<stop stop-color="#B7C6FA"/>
<stop offset="1" stop-color="#0828B1"/>
</linearGradient>
<linearGradient id="paint16_linear_4587_178291" x1="1126.45" y1="333.995" x2="1131.03" y2="333.995" gradientUnits="userSpaceOnUse">
<stop/>
<stop offset="1" stop-color="#414042"/>
</linearGradient>
<linearGradient id="paint17_linear_4587_178291" x1="1142" y1="333.995" x2="1146.58" y2="333.995" gradientUnits="userSpaceOnUse">
<stop/>
<stop offset="1" stop-color="#414042"/>
</linearGradient>
<linearGradient id="paint18_linear_4587_178291" x1="1157.54" y1="333.995" x2="1162.12" y2="333.995" gradientUnits="userSpaceOnUse">
<stop/>
<stop offset="1" stop-color="#414042"/>
</linearGradient>
<linearGradient id="paint19_linear_4587_178291" x1="1173.09" y1="333.995" x2="1177.67" y2="333.995" gradientUnits="userSpaceOnUse">
<stop/>
<stop offset="1" stop-color="#414042"/>
</linearGradient>
<linearGradient id="paint20_linear_4587_178291" x1="1126.45" y1="350.939" x2="1131.03" y2="350.939" gradientUnits="userSpaceOnUse">
<stop stop-color="#0828B1"/>
<stop offset="1" stop-color="#B7C6FA"/>
</linearGradient>
<linearGradient id="paint21_linear_4587_178291" x1="1142" y1="350.939" x2="1146.58" y2="350.939" gradientUnits="userSpaceOnUse">
<stop stop-color="#0828B1"/>
<stop offset="1" stop-color="#B7C6FA"/>
</linearGradient>
<linearGradient id="paint22_linear_4587_178291" x1="1157.54" y1="350.939" x2="1162.12" y2="350.939" gradientUnits="userSpaceOnUse">
<stop stop-color="#0828B1"/>
<stop offset="1" stop-color="#B7C6FA"/>
</linearGradient>
<linearGradient id="paint23_linear_4587_178291" x1="1173.09" y1="350.939" x2="1177.67" y2="350.939" gradientUnits="userSpaceOnUse">
<stop stop-color="#0828B1"/>
<stop offset="1" stop-color="#B7C6FA"/>
</linearGradient>
<linearGradient id="paint24_linear_4587_178291" x1="1126.45" y1="367.88" x2="1131.03" y2="367.88" gradientUnits="userSpaceOnUse">
<stop stop-color="#0828B1"/>
<stop offset="1" stop-color="#B7C6FA"/>
</linearGradient>
<linearGradient id="paint25_linear_4587_178291" x1="1142" y1="367.88" x2="1146.58" y2="367.88" gradientUnits="userSpaceOnUse">
<stop stop-color="#0828B1"/>
<stop offset="1" stop-color="#B7C6FA"/>
</linearGradient>
<linearGradient id="paint26_linear_4587_178291" x1="1157.54" y1="367.88" x2="1162.12" y2="367.88" gradientUnits="userSpaceOnUse">
<stop stop-color="#0828B1"/>
<stop offset="1" stop-color="#B7C6FA"/>
</linearGradient>
<linearGradient id="paint27_linear_4587_178291" x1="1173.09" y1="367.88" x2="1177.67" y2="367.88" gradientUnits="userSpaceOnUse">
<stop stop-color="#0828B1"/>
<stop offset="1" stop-color="#B7C6FA"/>
</linearGradient>
<linearGradient id="paint28_linear_4587_178291" x1="1126.45" y1="384.825" x2="1131.03" y2="384.825" gradientUnits="userSpaceOnUse">
<stop/>
<stop offset="1" stop-color="#414042"/>
</linearGradient>
<linearGradient id="paint29_linear_4587_178291" x1="1142" y1="384.826" x2="1146.58" y2="384.826" gradientUnits="userSpaceOnUse">
<stop/>
<stop offset="1" stop-color="#414042"/>
</linearGradient>
<linearGradient id="paint30_linear_4587_178291" x1="1157.5" y1="384.834" x2="1162.08" y2="384.834" gradientUnits="userSpaceOnUse">
<stop/>
<stop offset="1" stop-color="#414042"/>
</linearGradient>
<linearGradient id="paint31_linear_4587_178291" x1="1173.04" y1="384.834" x2="1177.62" y2="384.834" gradientUnits="userSpaceOnUse">
<stop/>
<stop offset="1" stop-color="#414042"/>
</linearGradient>
<linearGradient id="paint32_linear_4587_178291" x1="740.898" y1="121.845" x2="769.005" y2="148.175" gradientUnits="userSpaceOnUse">
<stop stop-color="#B7C6FA"/>
<stop offset="1" stop-color="#0828B1"/>
</linearGradient>
<linearGradient id="paint33_linear_4587_178291" x1="1245.89" y1="401.228" x2="1273.99" y2="427.558" gradientUnits="userSpaceOnUse">
<stop stop-color="#B7C6FA"/>
<stop offset="1" stop-color="#0828B1"/>
</linearGradient>
<linearGradient id="paint34_linear_4587_178291" x1="135.487" y1="702.267" x2="163.594" y2="728.597" gradientUnits="userSpaceOnUse">
<stop stop-color="#B7C6FA"/>
<stop offset="1" stop-color="#0828B1"/>
</linearGradient>
<linearGradient id="paint35_linear_4587_178291" x1="966.913" y1="206.306" x2="1014.73" y2="206.306" gradientUnits="userSpaceOnUse">
<stop stop-color="#5336E2"/>
<stop offset="1" stop-color="white"/>
</linearGradient>
</defs>
</svg>
